<?xml version="1.0" encoding="UTF-8" standalone="no"?>
<svg
   xmlns:dc="http://purl.org/dc/elements/1.1/"
   xmlns:cc="http://creativecommons.org/ns#"
   xmlns:rdf="http://www.w3.org/1999/02/22-rdf-syntax-ns#"
   xmlns:svg="http://www.w3.org/2000/svg"
   xmlns="http://www.w3.org/2000/svg"
   xmlns:sodipodi="http://sodipodi.sourceforge.net/DTD/sodipodi-0.dtd"
   xmlns:inkscape="http://www.inkscape.org/namespaces/inkscape"
   height="16"
   viewBox="0 0 16 16"
   width="16"
   version="1.1"
   id="svg4562"
   sodipodi:docname="icon_godot.svg"
   inkscape:version="0.92.4 (5da689c313, 2019-01-14)"
   inkscape:export-filename="I:\Games\Engines\luddith-dev\main\app_icon.png"
   inkscape:export-xdpi="768"
   inkscape:export-ydpi="768">
  <metadata
     id="metadata4568">
    <rdf:RDF>
      <cc:Work
         rdf:about="">
        <dc:format>image/svg+xml</dc:format>
        <dc:type
           rdf:resource="http://purl.org/dc/dcmitype/StillImage" />
        <dc:title></dc:title>
      </cc:Work>
    </rdf:RDF>
  </metadata>
  <defs
     id="defs4566" />
  <sodipodi:namedview
     pagecolor="#ffffff"
     bordercolor="#666666"
     borderopacity="1"
     objecttolerance="10"
     gridtolerance="10"
     guidetolerance="10"
     inkscape:pageopacity="0"
     inkscape:pageshadow="2"
     inkscape:window-width="1920"
     inkscape:window-height="1027"
     id="namedview4564"
     showgrid="false"
     inkscape:zoom="18.959301"
     inkscape:cx="8.5425156"
     inkscape:cy="-1.0000848"
     inkscape:window-x="1912"
     inkscape:window-y="-8"
     inkscape:window-maximized="1"
     inkscape:current-layer="svg4562" />
  <g
     inkscape:groupmode="layer"
     id="layer1"
     inkscape:label="Layer 1"
     style="display:inline"
     transform="matrix(0.08368239,0,0,0.08368239,-11.58218,-6.2125947)">
    <path
       style="display:inline;fill:#82502d;fill-opacity:1;stroke:none;stroke-width:11.94994736px;stroke-linecap:butt;stroke-linejoin:miter;stroke-opacity:1"
       d="m 234.00599,99.575714 -64.29913,28.508556 -4.28912,4.31732 v 76.51915 l 65.73366,30.04445 5.70994,3.7e-4 65.7329,-30.04482 v -76.51953 l -4.28911,-4.31694 -24.6176,-10.91465 -6.85071,-3.03862 -12.12933,-5.37732 -6.85072,-3.03747 z"
       id="path4638"
       inkscape:connector-curvature="0" />
  </g>
  <g
     id="g4628"
     transform="matrix(0.08368239,0,0,0.08368239,-11.58218,-6.2125947)"
     style="display:inline"
     inkscape:label="g4628">
    <g
       id="g4572">
      <path
         id="path4570"
         d="M 306.57626,125.31312 235.19782,93.668024 c -0.75899,-0.337201 -1.62543,-0.337201 -2.38442,0 l -71.37769,31.645096 c -1.21164,0.53724 -1.7283,1.64067 -1.7283,3.04434 v 82.39788 c 0,1.11753 0.65193,2.13256 1.66848,2.59664 l 71.44285,32.65365 c 0.37911,0.17298 0.78299,0.25871 1.18687,0.25871 0.45417,0 0.77423,-0.0511 1.1842,-0.26404 7.7e-4,0.002 71.44627,-32.6487 71.44627,-32.6487 1.01618,-0.46484 1.66848,-1.47988 1.66848,-2.59664 v -82.3975 c 0,-1.32937 -0.51628,-2.50748 -1.7283,-3.04434 z M 202.9789,144.90013 c -0.98759,0.47513 -1.61628,1.4753 -1.61628,2.57149 v 27.85549 l -13.95174,-6.58323 v -27.56515 l 67.2966,-32.42505 12.12933,5.37732 z m 31.02709,-45.324416 13.85078,6.140496 -61.86785,29.81011 -16.28206,-7.44205 z M 231.1514,238.96517 165.41774,208.92074 v -76.51915 l 16.28281,7.44243 v 30.70931 c 0,1.10534 0.63745,2.11085 1.63724,2.58179 l 19.66207,9.27932 c 0.38673,0.1825 0.80204,0.27357 1.21697,0.27357 0.53381,0 1.06457,-0.14974 1.52903,-0.44351 0.82643,-0.52466 1.32671,-1.43415 1.32671,-2.41223 v -28.39196 l 24.07883,11.00534 z m 2.85459,-81.49181 -22.56314,-10.31341 62.24467,-29.99033 24.6176,10.91465 z m 68.58825,51.44738 -65.7329,30.04482 v -76.51953 l 65.7329,-30.04482 z"
         inkscape:connector-curvature="0"
         style="fill:#afafaf;fill-opacity:0.72361809;stroke-width:0.38101834" />
    </g>
    <g
       id="g4574" />
    <g
       id="g4576" />
    <g
       id="g4578" />
    <g
       id="g4580" />
    <g
       id="g4582" />
    <g
       id="g4584" />
    <g
       id="g4586" />
    <g
       id="g4588" />
    <g
       id="g4590" />
    <g
       id="g4592" />
    <g
       id="g4594" />
    <g
       id="g4596" />
    <g
       id="g4598" />
    <g
       id="g4600" />
    <g
       id="g4602" />
  </g>
</svg>
